<svg width="256" height="384" viewBox="0 0 256 384" fill="none" xmlns="http://www.w3.org/2000/svg">
<g clip-path="url(#clip0_179_868)">
<path fill-rule="evenodd" clip-rule="evenodd" d="M32 144C23.1634 144 16 151.163 16 160V180V196C16 187.163 23.1634 180 32 180H224C232.837 180 240 187.163 240 196V180V160C240 151.163 232.837 144 224 144H32Z" fill="#C6D0F5"/>
<path fill-rule="evenodd" clip-rule="evenodd" d="M32 144C23.1634 144 16 151.163 16 160V180V196C16 187.163 23.1634 180 32 180H224C232.837 180 240 187.163 240 196V180V160C240 151.163 232.837 144 224 144H32Z" fill="#303446" fill-opacity="0.08"/>
<rect x="16" y="180" width="224" height="172" rx="16" fill="#C6D0F5"/>
<rect x="16" y="180" width="224" height="172" rx="16" fill="#303446" fill-opacity="0.2"/>
<path fill-rule="evenodd" clip-rule="evenodd" d="M0 288V320V352C0 369.673 14.3269 384 32 384H224C241.673 384 256 369.673 256 352V320V288C256 305.673 241.673 320 224 320H172C165.373 320 160 325.373 160 332V352C160 358.627 154.627 364 148 364H108C101.373 364 96 358.627 96 352V332C96 325.373 90.6274 320 84 320H32C14.3269 320 0 305.673 0 288Z" fill="#C6D0F5"/>
<path fill-rule="evenodd" clip-rule="evenodd" d="M224 144H32C23.1634 144 16 151.163 16 160V288C16 296.837 23.1634 304 32 304H84C90.6274 304 96 309.373 96 316V332C96 325.373 90.6274 320 84 320H32C14.3269 320 0 305.673 0 288V160C0 142.327 14.3269 128 32 128H224C241.673 128 256 142.327 256 160V288C256 305.673 241.673 320 224 320H172C165.373 320 160 325.373 160 332V316C160 309.373 165.373 304 172 304H224C232.837 304 240 296.837 240 288V160C240 151.163 232.837 144 224 144ZM160 336V352C160 358.627 154.627 364 148 364H108C101.373 364 96 358.627 96 352V336C96 342.627 101.373 348 108 348H148C154.627 348 160 342.627 160 336Z" fill="#C6D0F5"/>
<path fill-rule="evenodd" clip-rule="evenodd" d="M224 144H32C23.1634 144 16 151.163 16 160V288C16 296.837 23.1634 304 32 304H84C90.6274 304 96 309.373 96 316V332C96 325.373 90.6274 320 84 320H32C14.3269 320 0 305.673 0 288V160C0 142.327 14.3269 128 32 128H224C241.673 128 256 142.327 256 160V288C256 305.673 241.673 320 224 320H172C165.373 320 160 325.373 160 332V316C160 309.373 165.373 304 172 304H224C232.837 304 240 296.837 240 288V160C240 151.163 232.837 144 224 144ZM160 336V352C160 358.627 154.627 364 148 364H108C101.373 364 96 358.627 96 352V336C96 342.627 101.373 348 108 348H148C154.627 348 160 342.627 160 336Z" fill="#303446" fill-opacity="0.12"/>
<path fill-rule="evenodd" clip-rule="evenodd" d="M225.275 65.0407L244.773 39.6673C231.561 29.5145 216.991 21.0419 201.382 14.5691L189.124 44.1283L176.866 73.6875C187.238 77.9883 196.948 83.6301 205.776 90.4141L225.275 65.0407ZM148.824 33.354L152.964 1.62284C144.756 0.552254 136.386 0 127.887 0C119.387 0 111.017 0.552255 102.81 1.62284L106.949 33.354L111.088 65.0852C116.557 64.3717 122.163 64 127.887 64C133.611 64 139.216 64.3717 144.685 65.0852L148.824 33.354ZM66.649 44.1283L54.3913 14.5691C38.7822 21.0419 24.2119 29.5145 11 39.6673L30.4985 65.0407L49.9969 90.4141C58.825 83.6301 68.5355 77.9883 78.9067 73.6875L66.649 44.1283Z" fill="#E78284"/>
</g>
<defs>
<clipPath id="clip0_179_868">
<rect width="256" height="384" fill="white"/>
</clipPath>
</defs>
</svg>
